<svg xmlns="http://www.w3.org/2000/svg" viewBox="0 0 410 404" fill="none">
  <path d="M399.641 59.5246L215.643 388.545C211.844 395.338 202.084 395.378 198.228 388.618L10.5817 59.5563C6.38087 52.1896 12.6802 43.2665 21.0281 44.7586L205.223 77.6824C206.398 77.8924 207.601 77.8904 208.776 77.6763L389.119 44.8058C397.439 43.2894 403.768 52.1431 399.641 59.5246Z" fill="url(#paint0_linear)"/>
  <path d="M292.965 1.5744L156.789 28.2552C154.563 28.6937 152.906 30.5903 152.771 32.8615L144.395 174.33C144.198 177.733 147.258 180.346 150.518 179.566L188.42 170.602C191.967 169.751 195.172 173.055 194.132 176.553L183.155 213.933C182.068 217.595 185.695 221.01 189.286 219.86L212.947 212.476C216.546 211.323 220.179 214.75 219.073 218.419L201.52 276.503C200.221 280.818 205.813 283.748 208.405 279.922L209.619 278.152L322.922 72.0193C325.045 68.1732 322.108 63.4993 317.733 64.2767L279.214 71.0644C275.508 71.7087 272.421 68.2835 273.383 64.6496L300.646 27.2423C302.639 24.4672 300.282 20.7684 296.967 21.3947Z" fill="url(#paint1_linear)"/>
  <defs>
    <linearGradient id="paint0_linear" x1="6.00017" y1="32.9999" x2="235" y2="344" gradientUnits="userSpaceOnUse">
      <stop stop-color="#41D1FF"/>
      <stop offset="1" stop-color="#BD34FE"/>
    </linearGradient>
    <linearGradient id="paint1_linear" x1="194.651" y1="8.81818" x2="236.076" y2="292.989" gradientUnits="userSpaceOnUse">
      <stop stop-color="#FFEA83"/>
      <stop offset="0.0833333" stop-color="#FFDD35"/>
      <stop offset="1" stop-color="#FFA800"/>
    </linearGradient>
  </defs>
</svg>
